<svg width="35" height="35" viewBox="0 0 35 35" fill="none" xmlns="http://www.w3.org/2000/svg">
<g clip-path="url(#clip0_14_172)">
<rect width="35" height="34.3396" rx="17.1698" fill="#0A0B09"/>
<path d="M14.007 33.3005C14.007 33.7572 13.4531 34.3637 12.5781 34.2054V34.3396L23.7891 34.3415V34.1311C22.9009 34.3004 22.6827 33.762 22.6827 33.3008C22.6827 32.735 22.7045 30.8766 22.7045 28.5721C22.7045 26.9635 22.1445 25.9122 21.5167 25.3799C25.4149 24.9533 29.5066 23.4955 29.5066 16.8741C29.5066 14.9919 28.8295 13.4536 27.7074 12.2479C27.8878 11.8117 28.4883 10.0599 27.5335 7.6864C27.5335 7.6864 26.0667 7.22309 22.7264 9.45329C21.3286 9.07072 19.8313 8.87997 18.3449 8.87246C16.8563 8.88024 15.36 9.07072 13.9633 9.45329C10.6208 7.22309 9.1508 7.6864 9.1508 7.6864C8.19923 10.0599 8.7997 11.8117 8.98017 12.2479C7.86017 13.4536 7.17877 14.9919 7.17877 16.8741C7.17877 23.4794 11.2639 24.9576 15.15 25.3928C14.6502 25.8236 14.1974 26.5834 14.0388 27.6973C13.0413 28.1391 10.507 28.8997 8.94517 26.2655C8.94517 26.2655 8.02095 24.6107 6.26548 24.4889C6.26548 24.4889 4.55595 24.4672 6.14517 25.5371C6.14517 25.5371 7.29252 26.0672 8.08767 28.0581C8.08767 28.0581 9.1147 31.4108 13.983 30.3691C13.9917 31.8073 14.007 32.8912 14.007 33.3005Z" fill="white"/>
</g>
<defs>
<clipPath id="clip0_14_172">
<rect width="35" height="34.3396" rx="17.1698" fill="white"/>
</clipPath>
</defs>
</svg>
